HIERARCHY
ROOT Hips
{
 OFFSET 0.000000 0.000000 0.000000
 CHANNELS 6 Xposition Yposition Zposition Yrotation Xrotation Zrotation
 JOINT Chest
 {
  OFFSET 0.000000 9.581000 -0.001100
  CHANNELS 3 Yrotation Xrotation Zrotation
  JOINT Chest2
  {
   OFFSET 0.000000 9.561100 0.002200
   CHANNELS 3 Yrotation Xrotation Zrotation
   JOINT Chest3
   {
    OFFSET 0.000000 9.521100 0.000000
    CHANNELS 3 Yrotation Xrotation Zrotation
    JOINT Chest4
    {
     OFFSET 0.000000 9.511400 0.000000
     CHANNELS 3 Yrotation Xrotation Zrotation
     JOINT Neck
     {
      OFFSET 0.000000 14.375100 0.000000
      CHANNELS 3 Yrotation Xrotation Zrotation
      JOINT Head
      {
       OFFSET 0.000000 8.901200 0.004600
       CHANNELS 3 Yrotation Xrotation Zrotation
       End Site
       {
        OFFSET 0.000000 16.962200 0.002400
       }
      }
     }
     JOINT RightCollar
     {
      OFFSET -2.920100 9.518800 0.000000
      CHANNELS 3 Yrotation Xrotation Zrotation
      JOINT RightShoulder
      {
       OFFSET -13.664500 0.000000 0.000000
       CHANNELS 3 Yrotation Xrotation Zrotation
       JOINT RightElbow
       {
        OFFSET 0.000000 -29.999200 0.000000
        CHANNELS 3 Yrotation Xrotation Zrotation
        JOINT RightWrist
        {
         OFFSET 0.000000 -24.253600 0.000000
         CHANNELS 3 Yrotation Xrotation Zrotation
         End Site
         {
          OFFSET 0.000000 -17.918900 0.000000
         }
        }
       }
      }
     }
     JOINT LeftCollar
     {
      OFFSET 2.920100 9.518800 0.000000
      CHANNELS 3 Yrotation Xrotation Zrotation
      JOINT LeftShoulder
      {
       OFFSET 13.664500 0.000000 0.000000
       CHANNELS 3 Yrotation Xrotation Zrotation
       JOINT LeftElbow
       {
        OFFSET 0.000000 -29.999200 0.000000
        CHANNELS 3 Yrotation Xrotation Zrotation
        JOINT LeftWrist
        {
         OFFSET 0.000000 -24.253600 0.000000
         CHANNELS 3 Yrotation Xrotation Zrotation
         End Site
         {
          OFFSET 0.000000 -17.918900 0.000000
         }
        }
       }
      }
     }
    }
   }
  }
 }
 JOINT RightHip
 {
  OFFSET -7.797300 0.005300 0.000500
  CHANNELS 3 Yrotation Xrotation Zrotation
  JOINT RightKnee
  {
   OFFSET 0.000000 -40.663400 -0.000500
   CHANNELS 3 Yrotation Xrotation Zrotation
   JOINT RightAnkle
   {
    OFFSET 0.000000 -39.523700 -0.000900
    CHANNELS 3 Yrotation Xrotation Zrotation
    JOINT RightToe
    {
     OFFSET 0.000000 -6.418000 14.485300
     CHANNELS 3 Yrotation Xrotation Zrotation
     End Site
     {
      OFFSET 0.000000 -1.465200 6.326400
     }
    }
   }
  }
 }
 JOINT LeftHip
 {
  OFFSET 7.797300 0.005300 0.000500
  CHANNELS 3 Yrotation Xrotation Zrotation
  JOINT LeftKnee
  {
   OFFSET 0.000000 -40.663400 -0.000500
   CHANNELS 3 Yrotation Xrotation Zrotation
   JOINT LeftAnkle
   {
    OFFSET 0.000000 -39.523700 -0.000900
    CHANNELS 3 Yrotation Xrotation Zrotation
    JOINT LeftToe
    {
     OFFSET 0.000000 -6.418000 14.485300
     CHANNELS 3 Yrotation Xrotation Zrotation
     End Site
     {
      OFFSET 0.000000 -1.465200 6.326400
     }
    }
   }
  }
 }
}
MOTION
Frames: 9
Frame Time: 0.008333
-14.388152 126.910027 25.008713 -168.509544 -48.223798 -2.492479 -2.406404 26.469495 0.426265 -0.409017 4.470647 0.148922 -0.645015 7.099176 0.220820 -1.958698 21.684133 0.435261 1.238055 16.113384 -2.296172 1.821655 -8.781925 -2.692560 -0.319853 2.093677 0.859245 5.447226 -5.764041 -8.257097 -93.153816 -63.816029 145.249746 4.928684 21.205034 -16.187039 -8.019080 -1.261151 1.074385 -8.692958 -5.651440 10.320285 52.003797 -46.278815 -108.116625 9.378309 -4.386790 21.347924 -5.087831 -24.257078 -5.539999 -5.287988 78.539229 -4.475561 6.858391 -14.550495 2.573537 0.000335 -0.001026 0.000148 6.396562 5.285989 1.563064 128.213896 65.340596 147.664906 6.362881 12.236873 0.352672 0.004104 -0.003442 0.001818
-14.388188 126.909871 25.009017 -168.513036 -48.223104 -2.486142 -2.403620 26.472505 0.423310 -0.410304 4.468713 0.149027 -0.643586 7.100423 0.219965 -1.956451 21.686629 0.432540 1.231515 16.095239 -2.290720 1.815186 -8.798254 -2.688241 -0.320998 2.071105 0.857356 5.437536 -5.750479 -8.252261 -93.166745 -63.834088 145.262836 4.923796 21.192358 -16.203530 -8.037793 -1.282001 1.079702 -8.691776 -5.637207 10.324984 52.010626 -46.276948 -108.112996 9.379041 -4.389901 21.352925 -5.086021 -24.258055 -5.540626 -5.333997 78.535299 -4.524868 6.863489 -14.546649 2.575861 -0.000384 -0.000846 -0.000170 6.398235 5.286857 1.559490 128.214019 65.341224 147.662503 6.360102 12.226615 0.370845 0.002226 -0.004260 0.000986
-14.387976 126.910493 25.008642 -168.519754 -48.228494 -2.479631 -2.399368 26.477771 0.421260 -0.406346 4.473713 0.148396 -0.646903 7.096382 0.221019 -1.948242 21.698724 0.430068 1.214803 16.056203 -2.284178 1.797785 -8.833899 -2.680241 -0.326485 2.034018 0.851575 5.421678 -5.731192 -8.242789 -93.174046 -63.848395 145.273230 4.913028 21.181315 -16.208316 -8.059010 -1.308394 1.088339 -8.694743 -5.624589 10.328067 52.018224 -46.275757 -108.111477 9.378359 -4.392924 21.359189 -5.080780 -24.252417 -5.540275 -5.349323 78.534525 -4.539517 6.856550 -14.544140 2.574895 -0.000498 -0.001178 -0.000220 6.402542 5.292329 1.559243 128.214394 65.342480 147.662124 6.368205 12.237403 0.341100 -0.000824 -0.000760 -0.000365
-14.387985 126.910762 25.008632 -168.522359 -48.231275 -2.474473 -2.398003 26.483474 0.417310 -0.405769 4.471602 0.149827 -0.646804 7.101144 0.219136 -1.948469 21.694974 0.431339 1.195176 15.996099 -2.281008 1.773971 -8.889974 -2.667896 -0.324398 2.024705 0.847525 5.410621 -5.726603 -8.239548 -93.183891 -63.860922 145.281063 4.916965 21.172995 -16.219364 -8.065244 -1.316695 1.089154 -8.702539 -5.620466 10.329679 52.009735 -46.278264 -108.091502 9.377445 -4.403387 21.354679 -5.078623 -24.250577 -5.541466 -5.358785 78.535511 -4.549299 6.847783 -14.541981 2.573486 -0.000581 -0.002293 -0.000257 6.403050 5.297299 1.556939 128.205584 65.343535 147.654121 6.370682 12.246111 0.315785 -0.001828 0.003309 -0.000810
-14.387544 126.911381 25.008258 -168.524312 -48.236904 -2.472982 -2.391770 26.488679 0.422898 -0.407944 4.471758 0.147850 -0.643806 7.101311 0.220236 -1.947699 21.695206 0.430251 1.179487 15.965053 -2.278201 1.759079 -8.924735 -2.659332 -0.326353 2.012357 0.841117 5.410935 -5.714481 -8.234341 -93.197510 -63.862513 145.284481 4.931266 21.176950 -16.228861 -8.076736 -1.322413 1.088565 -8.703605 -5.616263 10.331548 52.011030 -46.278056 -108.085732 9.380757 -4.400576 21.348583 -5.078543 -24.244614 -5.542206 -5.350634 78.535673 -4.543761 6.855417 -14.536637 2.572641 0.000070 -0.002388 0.000031 6.394635 5.309755 1.557418 128.198342 65.344779 147.640865 6.371313 12.252194 0.282450 -0.002316 0.010521 -0.001026
-14.387401 126.911617 25.008262 -168.521603 -48.239558 -2.472977 -2.388530 26.490129 0.421824 -0.408301 4.473289 0.147743 -0.644898 7.102096 0.221430 -1.945196 21.697836 0.427505 1.170860 15.945745 -2.271780 1.758417 -8.925825 -2.657653 -0.326166 1.996167 0.831918 5.403083 -5.704924 -8.216602 -93.229024 -63.881652 145.305010 4.930079 21.181520 -16.227288 -8.110232 -1.353461 1.077059 -8.691965 -5.587983 10.349310 52.007679 -46.270209 -108.077233 9.383278 -4.403333 21.345593 -5.082611 -24.241669 -5.542718 -5.319395 78.535528 -4.523305 6.863035 -14.531723 2.577306 -0.000105 -0.002110 -0.000046 6.391145 5.314871 1.554878 128.180442 65.345494 147.625551 6.360993 12.247586 0.289048 -0.000874 0.008117 -0.000387
-14.387488 126.911624 25.008481 -168.519297 -48.240479 -2.471428 -2.390476 26.491019 0.418258 -0.406601 4.474997 0.147038 -0.644886 7.101378 0.220165 -1.946083 21.697860 0.427939 1.165587 15.929025 -2.269068 1.739662 -8.977364 -2.648385 -0.325965 1.991095 0.830526 5.399712 -5.699937 -8.212071 -93.281438 -63.923366 145.343425 4.903872 21.172223 -16.230462 -8.124293 -1.364968 1.074905 -8.682459 -5.575227 10.352687 51.990163 -46.259760 -108.060851 9.379064 -4.404585 21.336261 -5.085697 -24.241471 -5.544789 -5.310651 78.537255 -4.519510 6.862620 -14.525628 2.578922 -0.000046 -0.001858 -0.000020 6.387914 5.319071 1.550734 128.163703 65.346163 147.605683 6.345504 12.228860 0.340029 -0.000429 0.002631 -0.000190
-14.387316 126.911586 25.008674 -168.519186 -48.240920 -2.470368 -2.390417 26.491655 0.417048 -0.404825 4.477580 0.147062 -0.645586 7.101936 0.219172 -1.944979 21.700198 0.426465 1.143853 15.871992 -2.266607 1.738155 -8.987943 -2.642856 -0.326054 1.978261 0.828381 5.393367 -5.690158 -8.203724 -93.293578 -63.943210 145.352181 4.904682 21.179392 -16.238262 -8.137576 -1.376672 1.076976 -8.673166 -5.566764 10.353637 51.960865 -46.239094 -108.044937 9.361539 -4.406320 21.337403 -5.089217 -24.242342 -5.545077 -5.299557 78.539126 -4.511700 6.859266 -14.517644 2.580097 -0.000360 -0.002026 -0.000159 6.386055 5.323555 1.549712 128.151655 65.349200 147.590700 6.332894 12.213744 0.381564 0.000746 -0.001127 0.000330
-14.387596 126.911216 25.009191 -168.523044 -48.238811 -2.464050 -2.387576 26.492022 0.415001 -0.402544 4.478174 0.144401 -0.640964 7.106679 0.217815 -1.945036 21.697661 0.428738 1.128785 15.844100 -2.263128 1.693335 -9.074035 -2.623585 -0.325542 1.964456 0.829216 5.394880 -5.679809 -8.200568 -93.300347 -63.959320 145.341234 4.901886 21.205957 -16.243629 -8.147795 -1.383304 1.082401 -8.660668 -5.562284 10.342980 51.942268 -46.244086 -108.036309 9.364177 -4.397570 21.341691 -5.088186 -24.244997 -5.548445 -5.290920 78.539616 -4.505313 6.857845 -14.515440 2.580730 -0.000466 -0.002348 -0.000207 6.390602 5.322980 1.547889 128.122407 65.343827 147.561745 6.310225 12.199203 0.420707 0.002322 -0.004369 0.001029
